<svg xmlns="http://www.w3.org/2000/svg" width="1280" height="645" viewBox="0 0 1280 645">
<rect width="100%" height="100%" fill="#ffffff"/>
<text x="70" y="52" font-family="Arial" font-size="34" font-weight="bold" fill="#0f172a">Actividad 01: tres ejercicios progresivos</text>
<text x="70" y="86" font-family="Arial" font-size="19" fill="#475569">La evaluación replica y extiende los modelos revisados</text>
<rect x="70" y="120" width="1140" height="64" rx="15" fill="#dbeafe" stroke="#334155" stroke-width="2"/><text x="105" y="146" font-family="Arial" font-size="21" font-weight="bold" fill="#0f172a">1. Ejercicio A - PL</text><text x="105" y="171" font-family="Arial" font-size="16" fill="#334155">Producción de aisladores con recursos limitados</text><line x1="640" y1="184" x2="640" y2="208" stroke="#475569" stroke-width="3"/><polygon points="630,204 650,204 640,216" fill="#475569"/><rect x="70" y="216" width="1140" height="64" rx="15" fill="#dcfce7" stroke="#334155" stroke-width="2"/><text x="105" y="242" font-family="Arial" font-size="21" font-weight="bold" fill="#0f172a">2. Ejercicio B - Transporte</text><text x="105" y="267" font-family="Arial" font-size="16" fill="#334155">Asignación de energía desde centrales a cargas</text><line x1="640" y1="280" x2="640" y2="304" stroke="#475569" stroke-width="3"/><polygon points="630,300 650,300 640,312" fill="#475569"/><rect x="70" y="312" width="1140" height="64" rx="15" fill="#fef3c7" stroke="#334155" stroke-width="2"/><text x="105" y="338" font-family="Arial" font-size="21" font-weight="bold" fill="#0f172a">3. Ejercicio C - MILP</text><text x="105" y="363" font-family="Arial" font-size="16" fill="#334155">Localización/cobertura de equipos de monitoreo</text><line x1="640" y1="376" x2="640" y2="400" stroke="#475569" stroke-width="3"/><polygon points="630,396 650,396 640,408" fill="#475569"/><rect x="70" y="408" width="1140" height="64" rx="15" fill="#fce7f3" stroke="#334155" stroke-width="2"/><text x="105" y="434" font-family="Arial" font-size="21" font-weight="bold" fill="#0f172a">4. Comparación</text><text x="105" y="459" font-family="Arial" font-size="16" fill="#334155">Identificar diferencias entre variables continuas y binarias</text><line x1="640" y1="472" x2="640" y2="496" stroke="#475569" stroke-width="3"/><polygon points="630,492 650,492 640,504" fill="#475569"/><rect x="70" y="504" width="1140" height="64" rx="15" fill="#ede9fe" stroke="#334155" stroke-width="2"/><text x="105" y="530" font-family="Arial" font-size="21" font-weight="bold" fill="#0f172a">5. Informe</text><text x="105" y="555" font-family="Arial" font-size="16" fill="#334155">Explicar datos, modelo, solución y sensibilidad</text>
</svg>