<svg xmlns="http://www.w3.org/2000/svg" width="1300" height="594" viewBox="0 0 1300 594"><rect width="100%" height="100%" fill="#ffffff"/><text x="60" y="52" font-family="Arial" font-size="34" font-weight="bold" fill="#0f172a">Qué caso usar según el tema</text><text x="60" y="84" font-family="Arial" font-size="18" fill="#475569">Guía de navegación para que el estudiante no se pierda entre carpetas</text><rect x="60" y="125" width="1180" height="62" rx="14" fill="#0f172a"/><text x="78" y="163" font-family="Arial" font-size="17" font-weight="bold" fill="#ffffff">Tema</text><text x="471" y="163" font-family="Arial" font-size="17" font-weight="bold" fill="#ffffff">Caso recomendado</text><text x="864" y="163" font-family="Arial" font-size="17" font-weight="bold" fill="#ffffff">Modelo asociado</text><rect x="60" y="187" width="1180" height="62" fill="#f8fafc" stroke="#cbd5e1" stroke-width="1"/><text x="78" y="215" font-family="Arial" font-size="15" fill="#0f172a">Fundamentos</text><text x="471" y="215" font-family="Arial" font-size="15" fill="#0f172a">operacion_3_generadores</text><text x="864" y="215" font-family="Arial" font-size="15" fill="#0f172a">ED básico y costos por tramos</text><rect x="60" y="249" width="1180" height="62" fill="#ffffff" stroke="#cbd5e1" stroke-width="1"/><text x="78" y="277" font-family="Arial" font-size="15" fill="#0f172a">Operación</text><text x="471" y="277" font-family="Arial" font-size="15" fill="#0f172a">hidrotermico_didactico</text><text x="864" y="277" font-family="Arial" font-size="15" fill="#0f172a">Despacho hidrotermico y cascadas</text><rect x="60" y="311" width="1180" height="62" fill="#f8fafc" stroke="#cbd5e1" stroke-width="1"/><text x="78" y="339" font-family="Arial" font-size="15" fill="#0f172a">OPF-DC</text><text x="471" y="339" font-family="Arial" font-size="15" fill="#0f172a">opf_dc_didactico</text><text x="864" y="339" font-family="Arial" font-size="15" fill="#0f172a">Balance nodal y congestión</text><rect x="60" y="373" width="1180" height="62" fill="#ffffff" stroke="#cbd5e1" stroke-width="1"/><text x="78" y="401" font-family="Arial" font-size="15" fill="#0f172a">OPF-AC</text><text x="471" y="401" font-family="Arial" font-size="15" fill="#0f172a">ieee_14_barras / ieee_30_barras</text><text x="864" y="401" font-family="Arial" font-size="15" fill="#0f172a">Tensión, reactivos y pérdidas</text><rect x="60" y="435" width="1180" height="62" fill="#f8fafc" stroke="#cbd5e1" stroke-width="1"/><text x="78" y="463" font-family="Arial" font-size="15" fill="#0f172a">TNEP</text><text x="471" y="463" font-family="Arial" font-size="15" fill="#0f172a">garver_6_barras / ieee_24_rts</text><text x="864" y="463" font-family="Arial" font-size="15" fill="#0f172a">Transporte, DC y expansión</text><rect x="60" y="497" width="1180" height="62" fill="#ffffff" stroke="#cbd5e1" stroke-width="1"/><text x="78" y="525" font-family="Arial" font-size="15" fill="#0f172a">GEP</text><text x="471" y="525" font-family="Arial" font-size="15" fill="#0f172a">garver_6_barras</text><text x="864" y="525" font-family="Arial" font-size="15" fill="#0f172a">Base, bloques y multianual</text></svg>