<svg xmlns="http://www.w3.org/2000/svg" width="1200" height="360" viewBox="0 0 1200 360">
  <defs>
    <linearGradient id="g" x1="0" y1="0" x2="1" y2="1">
      <stop offset="0" stop-color="#081b33"/>
      <stop offset="0.55" stop-color="#103f73"/>
      <stop offset="1" stop-color="#0a6b6f"/>
    </linearGradient>
  </defs>
  <rect width="1200" height="360" fill="url(#g)"/>
  <g opacity="0.17" stroke="#ffffff" stroke-width="3" fill="none">
    <path d="M80 245 L240 160 L390 215 L560 125 L740 200 L930 115 L1100 180"/>
    <circle cx="80" cy="245" r="16"/><circle cx="240" cy="160" r="16"/><circle cx="390" cy="215" r="16"/>
    <circle cx="560" cy="125" r="16"/><circle cx="740" cy="200" r="16"/><circle cx="930" cy="115" r="16"/><circle cx="1100" cy="180" r="16"/>
  </g>
  <rect x="62" y="58" width="150" height="150" rx="28" fill="#ffffff" opacity="0.12"/>
  <circle cx="137" cy="133" r="48" fill="none" stroke="#76b7ff" stroke-width="8"/>
  <path d="M94 147 L122 119 L146 139 L178 103" fill="none" stroke="#ffd166" stroke-width="8" stroke-linecap="round" stroke-linejoin="round"/>
  <text x="250" y="120" font-family="Arial, Helvetica, sans-serif" font-size="44" font-weight="700" fill="#ffffff">Planificación y Operación de SEP</text>
  <text x="252" y="168" font-family="Arial, Helvetica, sans-serif" font-size="24" fill="#d7ecff">Modelos de optimización · Casos de estudio · Análisis técnico</text>
  <g font-family="Arial, Helvetica, sans-serif" font-size="18" fill="#ffffff">
    <rect x="252" y="225" width="185" height="42" rx="21" fill="#ffffff" opacity="0.16"/>
    <text x="344" y="252" text-anchor="middle">ED / UC</text>
    <rect x="457" y="225" width="185" height="42" rx="21" fill="#ffffff" opacity="0.16"/>
    <text x="549" y="252" text-anchor="middle">OPF AC/DC</text>
    <rect x="662" y="225" width="185" height="42" rx="21" fill="#ffffff" opacity="0.16"/>
    <text x="754" y="252" text-anchor="middle">TNEP</text>
    <rect x="867" y="225" width="185" height="42" rx="21" fill="#ffffff" opacity="0.16"/>
    <text x="959" y="252" text-anchor="middle">GEP</text>
  </g>
</svg>
