<svg xmlns="http://www.w3.org/2000/svg" width="1200" height="655" viewBox="0 0 1200 655">
<rect width="100%" height="100%" fill="#fff"/>
<text x="70" y="50" font-family="Arial" font-size="34" font-weight="bold" fill="#0f172a">Flujo de laboratorio de modelación</text>
<text x="70" y="78" font-family="Arial" font-size="18" fill="#475569">Planificación y Operación de Sistemas Eléctricos de Potencia</text>
<rect x="70" y="100" width="1060" height="70" rx="14" fill="#e0f2fe" stroke="#334155" stroke-width="2"/><text x="95" y="128" font-family="Arial" font-size="22" font-weight="bold" fill="#0f172a">1. Modelo matemático</text><text x="95" y="155" font-family="Arial" font-size="17" fill="#334155">Conjuntos, parámetros, variables, objetivo y restricciones</text><line x1="600" y1="170" x2="600" y2="197" stroke="#475569" stroke-width="3"/><polygon points="590,194 610,194 600,209" fill="#475569"/><rect x="70" y="205" width="1060" height="70" rx="14" fill="#dcfce7" stroke="#334155" stroke-width="2"/><text x="95" y="233" font-family="Arial" font-size="22" font-weight="bold" fill="#0f172a">2. Datos del caso</text><text x="95" y="260" font-family="Arial" font-size="17" fill="#334155">Tablas, CSV y archivos .dat construidos por el estudiante</text><line x1="600" y1="275" x2="600" y2="302" stroke="#475569" stroke-width="3"/><polygon points="590,299 610,299 600,314" fill="#475569"/><rect x="70" y="310" width="1060" height="70" rx="14" fill="#fef3c7" stroke="#334155" stroke-width="2"/><text x="95" y="338" font-family="Arial" font-size="22" font-weight="bold" fill="#0f172a">3. Implementación AMPL</text><text x="95" y="365" font-family="Arial" font-size="17" fill="#334155">.mod, .dat, .run y generación del .out</text><line x1="600" y1="380" x2="600" y2="407" stroke="#475569" stroke-width="3"/><polygon points="590,404 610,404 600,419" fill="#475569"/><rect x="70" y="415" width="1060" height="70" rx="14" fill="#fce7f3" stroke="#334155" stroke-width="2"/><text x="95" y="443" font-family="Arial" font-size="22" font-weight="bold" fill="#0f172a">4. Postproceso</text><text x="95" y="470" font-family="Arial" font-size="17" fill="#334155">Excel con indicadores, gráficos y escenarios</text><line x1="600" y1="485" x2="600" y2="512" stroke="#475569" stroke-width="3"/><polygon points="590,509 610,509 600,524" fill="#475569"/><rect x="70" y="520" width="1060" height="70" rx="14" fill="#ede9fe" stroke="#334155" stroke-width="2"/><text x="95" y="548" font-family="Arial" font-size="22" font-weight="bold" fill="#0f172a">5. Informe técnico</text><text x="95" y="575" font-family="Arial" font-size="17" fill="#334155">Discusión, validación, limitaciones y conclusiones</text>
</svg>