<svg xmlns="http://www.w3.org/2000/svg" width="1200" height="420" viewBox="0 0 1200 420">
  <rect width="1200" height="420" fill="#f8fbff"/>
  <text x="600" y="50" text-anchor="middle" font-family="Arial, Helvetica, sans-serif" font-size="32" font-weight="700" fill="#0b1f3a">Horizontes temporales en operación y planificación de SEP</text>
  <line x1="120" y1="220" x2="1080" y2="220" stroke="#0b1f3a" stroke-width="5" stroke-linecap="round"/>
  <polygon points="1080,220 1055,207 1055,233" fill="#0b1f3a"/>
  <g font-family="Arial, Helvetica, sans-serif">
    <g>
      <circle cx="170" cy="220" r="16" fill="#2a9d8f"/>
      <rect x="85" y="260" width="170" height="84" rx="12" fill="#e0f3ef" stroke="#2a9d8f"/>
      <text x="170" y="290" text-anchor="middle" font-size="18" font-weight="700" fill="#0b1f3a">Segundos-minutos</text>
      <text x="170" y="318" text-anchor="middle" font-size="15" fill="#0b1f3a">Control, reservas</text>
    </g>
    <g>
      <circle cx="370" cy="220" r="16" fill="#457b9d"/>
      <rect x="285" y="110" width="170" height="84" rx="12" fill="#e7f0f7" stroke="#457b9d"/>
      <text x="370" y="140" text-anchor="middle" font-size="18" font-weight="700" fill="#0b1f3a">Horas-día</text>
      <text x="370" y="168" text-anchor="middle" font-size="15" fill="#0b1f3a">ED, UC, OPF</text>
    </g>
    <g>
      <circle cx="570" cy="220" r="16" fill="#f4a261"/>
      <rect x="485" y="260" width="170" height="84" rx="12" fill="#fff1e6" stroke="#f4a261"/>
      <text x="570" y="290" text-anchor="middle" font-size="18" font-weight="700" fill="#0b1f3a">Semanas-meses</text>
      <text x="570" y="318" text-anchor="middle" font-size="15" fill="#0b1f3a">Hidrotérmico</text>
    </g>
    <g>
      <circle cx="770" cy="220" r="16" fill="#e76f51"/>
      <rect x="685" y="110" width="170" height="84" rx="12" fill="#fdebe6" stroke="#e76f51"/>
      <text x="770" y="140" text-anchor="middle" font-size="18" font-weight="700" fill="#0b1f3a">Años</text>
      <text x="770" y="168" text-anchor="middle" font-size="15" fill="#0b1f3a">TNEP, GEP</text>
    </g>
    <g>
      <circle cx="970" cy="220" r="16" fill="#7b2cbf"/>
      <rect x="885" y="260" width="170" height="84" rx="12" fill="#f0e7ff" stroke="#7b2cbf"/>
      <text x="970" y="290" text-anchor="middle" font-size="18" font-weight="700" fill="#0b1f3a">Décadas</text>
      <text x="970" y="318" text-anchor="middle" font-size="15" fill="#0b1f3a">Expansión integral</text>
    </g>
  </g>
</svg>
