<svg xmlns="http://www.w3.org/2000/svg" width="1200" height="560" viewBox="0 0 1200 560">
  <rect width="1200" height="560" fill="#fbfdff"/>
  <text x="600" y="48" text-anchor="middle" font-family="Arial, Helvetica, sans-serif" font-size="32" font-weight="700" fill="#0b1f3a">Mapa de bloques del repositorio</text>
  <g font-family="Arial, Helvetica, sans-serif" font-size="18" fill="#0b1f3a">
    <rect x="70" y="105" width="245" height="86" rx="16" fill="#e7f0ff" stroke="#356abc"/>
    <text x="192" y="140" text-anchor="middle" font-weight="700">01 Fundamentos</text>
    <text x="192" y="166" text-anchor="middle">LP · MILP · NLP</text>
    <rect x="360" y="105" width="245" height="86" rx="16" fill="#e8f7f2" stroke="#2a9d8f"/>
    <text x="482" y="140" text-anchor="middle" font-weight="700">02 Operación</text>
    <text x="482" y="166" text-anchor="middle">ED · UC · hidrotérmico</text>
    <rect x="650" y="105" width="245" height="86" rx="16" fill="#fff1e6" stroke="#f4a261"/>
    <text x="772" y="140" text-anchor="middle" font-weight="700">03 OPF</text>
    <text x="772" y="166" text-anchor="middle">AC · DC</text>
    <rect x="940" y="105" width="190" height="86" rx="16" fill="#fdebea" stroke="#e76f51"/>
    <text x="1035" y="140" text-anchor="middle" font-weight="700">04 TNEP</text>
    <text x="1035" y="166" text-anchor="middle">Transmisión</text>
    <rect x="190" y="285" width="245" height="86" rx="16" fill="#f0e7ff" stroke="#7b2cbf"/>
    <text x="312" y="320" text-anchor="middle" font-weight="700">05 GEP</text>
    <text x="312" y="346" text-anchor="middle">Generación</text>
    <rect x="480" y="285" width="245" height="86" rx="16" fill="#fff7d6" stroke="#c49a00"/>
    <text x="602" y="320" text-anchor="middle" font-weight="700">06 Casos</text>
    <text x="602" y="346" text-anchor="middle">Garver · IEEE</text>
    <rect x="770" y="285" width="245" height="86" rx="16" fill="#e6f6ff" stroke="#118ab2"/>
    <text x="892" y="320" text-anchor="middle" font-weight="700">07 Presentaciones</text>
    <text x="892" y="346" text-anchor="middle">Material visual</text>
    <rect x="480" y="435" width="245" height="86" rx="16" fill="#f2f2f2" stroke="#555555"/>
    <text x="602" y="470" text-anchor="middle" font-weight="700">08 Evaluación</text>
    <text x="602" y="496" text-anchor="middle">Actividades · rúbricas</text>
  </g>
</svg>
