<svg xmlns="http://www.w3.org/2000/svg" width="1280" height="635" viewBox="0 0 1280 635">
<rect width="100%" height="100%" fill="#ffffff"/>
<text x="70" y="52" font-family="Arial" font-size="34" font-weight="bold" fill="#0f172a">Casos de estudio transversales</text>
<text x="70" y="84" font-family="Arial" font-size="19" fill="#475569">Los mismos datos pueden alimentar diferentes modelos</text>
<rect x="70" y="118" width="1140" height="62" rx="15" fill="#e0f2fe" stroke="#334155" stroke-width="2"/><text x="105" y="143" font-family="Arial" font-size="21" font-weight="bold" fill="#0f172a">1. Garver</text><text x="105" y="168" font-family="Arial" font-size="16" fill="#334155">TNEP y GEP</text><line x1="640" y1="180" x2="640" y2="204" stroke="#475569" stroke-width="3"/><polygon points="630,200 650,200 640,212" fill="#475569"/><rect x="70" y="213" width="1140" height="62" rx="15" fill="#dcfce7" stroke="#334155" stroke-width="2"/><text x="105" y="238" font-family="Arial" font-size="21" font-weight="bold" fill="#0f172a">2. IEEE 14 / 30</text><text x="105" y="263" font-family="Arial" font-size="16" fill="#334155">OPF-DC y OPF-AC</text><line x1="640" y1="275" x2="640" y2="299" stroke="#475569" stroke-width="3"/><polygon points="630,295 650,295 640,307" fill="#475569"/><rect x="70" y="308" width="1140" height="62" rx="15" fill="#fef3c7" stroke="#334155" stroke-width="2"/><text x="105" y="333" font-family="Arial" font-size="21" font-weight="bold" fill="#0f172a">3. IEEE 24 RTS</text><text x="105" y="358" font-family="Arial" font-size="16" fill="#334155">Confiabilidad, operación y expansión</text><line x1="640" y1="370" x2="640" y2="394" stroke="#475569" stroke-width="3"/><polygon points="630,390 650,390 640,402" fill="#475569"/><rect x="70" y="403" width="1140" height="62" rx="15" fill="#fce7f3" stroke="#334155" stroke-width="2"/><text x="105" y="428" font-family="Arial" font-size="21" font-weight="bold" fill="#0f172a">4. Didácticos</text><text x="105" y="453" font-family="Arial" font-size="16" fill="#334155">ED, UC e hidrotérmico</text><line x1="640" y1="465" x2="640" y2="489" stroke="#475569" stroke-width="3"/><polygon points="630,485 650,485 640,497" fill="#475569"/><rect x="70" y="498" width="1140" height="62" rx="15" fill="#ede9fe" stroke="#334155" stroke-width="2"/><text x="105" y="523" font-family="Arial" font-size="21" font-weight="bold" fill="#0f172a">5. Integradores</text><text x="105" y="548" font-family="Arial" font-size="16" fill="#334155">Comparación entre modelos y escenarios</text>
</svg>